<?xml version="1.0" standalone="no"?>
<!DOCTYPE svg PUBLIC "-//W3C//DTD SVG 20010904//EN"
 "http://www.w3.org/TR/2001/REC-SVG-20010904/DTD/svg10.dtd">
<svg version="1.0" xmlns="http://www.w3.org/2000/svg"
 width="500.000000pt" height="500.000000pt" viewBox="0 0 500.000000 500.000000"
 preserveAspectRatio="xMidYMid meet">

<g transform="translate(0.000000,500.000000) scale(0.100000,-0.100000)"
fill="#000000" stroke="none">
<path d="M1947 3015 c-72 -25 -106 -69 -116 -149 l-6 -51 -52 -3 c-28 -2 -56
-8 -61 -15 -7 -9 -82 -622 -82 -669 0 -15 33 -38 55 -38 19 0 25 8 34 48 7 26
33 90 58 142 37 78 59 109 123 171 95 94 183 140 318 166 l93 18 -6 70 c-10
96 -15 103 -77 107 l-53 3 -6 46 c-12 83 -48 130 -116 155 -47 16 -59 16 -106
-1z m121 -55 c37 -23 65 -78 60 -119 l-3 -26 -125 0 -125 0 -3 26 c-8 69 57
139 128 139 19 0 50 -9 68 -20z m-200 -217 c-2 -10 -10 -18 -18 -18 -8 0 -16
8 -18 18 -2 12 3 17 18 17 15 0 20 -5 18 -17z m297 -3 c0 -22 -29 -18 -33 3
-3 14 1 18 15 15 10 -2 18 -10 18 -18z"/>
<path d="M2074 2456 c-110 -48 -88 -175 33 -191 84 -11 98 -18 101 -53 3 -26
-2 -33 -27 -46 -16 -9 -39 -16 -51 -16 -30 0 -80 28 -80 45 0 9 -10 15 -25 15
-33 0 -34 -32 -1 -65 80 -80 236 -38 236 65 0 62 -35 87 -151 105 -45 7 -63
27 -55 58 12 49 88 61 134 22 27 -22 62 -26 62 -6 0 18 -36 55 -66 67 -41 17
-70 17 -110 0z"/>
<path d="M2690 2280 l0 -180 25 0 25 0 0 180 0 180 -25 0 -25 0 0 -180z"/>
<path d="M2820 2280 l0 -180 25 0 25 0 0 180 0 180 -25 0 -25 0 0 -180z"/>
<path d="M2400 2372 c-73 -36 -101 -126 -62 -201 36 -72 123 -100 195 -63 29
16 37 17 37 6 0 -8 10 -14 25 -14 l25 0 0 140 0 140 -25 0 c-15 0 -25 -6 -25
-14 0 -11 -8 -10 -37 5 -46 24 -88 24 -133 1z m144 -63 c24 -28 28 -38 23 -76
-5 -51 -26 -78 -73 -93 -41 -14 -95 8 -113 46 -14 31 -14 89 -1 114 31 57 116
61 164 9z"/>
<path d="M3021 2373 c-48 -25 -73 -63 -78 -120 -10 -119 106 -199 210 -145 29
16 37 17 37 6 0 -8 10 -14 25 -14 l25 0 0 140 0 140 -25 0 c-17 0 -25 -6 -25
-17 0 -14 -2 -14 -20 2 -29 26 -107 30 -149 8z m114 -38 c79 -38 73 -156 -9
-190 -42 -18 -81 -8 -111 27 -44 52 -28 139 30 164 39 17 51 17 90 -1z"/>
</g>
</svg>
